<svg xmlns="http://www.w3.org/2000/svg" viewBox="0 0 564.98 366.16" style="enable-background:new 0 0 564.98 366.16"
     xml:space="preserve"><style>.st0 {
  fill: #6f6f6f
}</style>
  <switch><g><linearGradient id="SVGID_1_" gradientUnits="userSpaceOnUse" x1="5667.338" y1="2919.685" x2="5668.045" y2="2920.392"><stop offset="0" style="stop-color:#e6e6ea"/><stop
      offset=".174" style="stop-color:#e2e1e5"/><stop offset=".352" style="stop-color:#d5d4d7"/><stop offset=".532"
                                                                                                      style="stop-color:#c0bec1"/><stop
      offset=".714" style="stop-color:#a3a2a4"/><stop offset=".895" style="stop-color:#808182"/><stop offset="1"
                                                                                                      style="stop-color:#6a6d6d"/></linearGradient><g
      id="my"><path class="st0" d="M144.26 366.16c-3.58 0-7.28-1.05-10.74-3.15-8.49-5.15-12.88-14.77-11.17-24.5 1.9-10.88 15.21-22.94 27.37-29.22 10.41-5.46 27.15-11.84 47.16-17.97 1.58-2.99 3.55-6.39 5.63-9.98 2.71-4.69 5.5-9.5 7.39-13.39-.92.91-1.86 1.85-2.82 2.82-8.98 9-19.15 19.2-32 20.99-5.56.78-9.34-.45-11.23-3.62-4.18-7.03 2.31-21.47 10.59-32.67 4.82-6.51 13.38-17.18 16.61-15.48.42.22.71.58.82 1.05.47 1.9-1.85 5.44-6.74 12.64-2.59 3.82-5.82 8.57-9.05 13.9-3.73 6.16-4.52 10.98-2.18 13.23 2.44 2.34 7.86 1.6 12.89-1.75 8.6-5.74 21.68-19.84 30.82-31.26 2.95-3.68 6.28-4.89 8.92-3.23 2.9 1.82-1.72 11.46-13.2 32.39-2.26 4.13-4.42 8.05-6.11 11.33 18.2-5.2 44.35-11.92 60.19-14.31.31-.05 7.68-1.13 8.37 1.2.1.32.05.65-.12.95-.58.98-2.53 1.57-6.7 2.51-8.54 1.93-47.11 11.21-66.54 18.17-22.79 39.41-34.82 56.03-47.62 65.83-3.07 2.33-6.73 3.51-10.54 3.52zm47.55-65.42c-14.66 5.46-26.44 9.92-39.76 17.03-14.25 7.61-25.52 21.7-18.57 36.05 2.74 4.43 5.88 6.61 9.57 6.62h.02c8.36 0 19.77-11.53 33.92-34.26 3.49-5.61 9.15-15.13 14.82-25.44z"/>
    <path class="st0"
          d="M2.12 329.7c-.33 0-.64-.09-.93-.26-2.72-1.59-.01-6.78.56-7.8 4.4-7.87 9.17-15.15 14.08-22.54 5.47-8.18 10.39-15.27 15.06-21.69 10.89-15.08 21.26-28.86 31.7-42.11l32.6-41.27 4.15-5.16c1.48-1.81 2.92-3.4 4.44-5.09 3.26-3.53 6.23-6.68 9.97-9.73l.05-.04c2.22-1.75 4.89-3.56 7.86-3.21 1.78.21 3.45 1.4 4.22 3.02.86 1.79.76 3.75.33 5.64-.44 1.86-1.15 3.68-1.91 5.43-1.92 4.4-4.07 8.41-6.12 12.14-2.73 4.96-5.63 9.84-8.44 14.57-1.6 2.69-3.26 5.48-4.84 8.22-5.1 8.72-9.08 15.96-12.52 22.78-3.67 7.35-7.4 15.28-9.83 23.47-.66 2.29-1.1 4.16-1.37 5.88-.36 2.34-.48 4.19-.36 5.5.15 1.66.64 3.25 1.34 4.38.71 1.12 1.53 1.76 2.57 1.99 1.1.26 2.64.09 4.22-.47 1.51-.52 3.19-1.37 4.98-2.53 2.87-1.85 5.88-4.35 9.48-7.86 5.37-5.3 11.08-11.3 17.95-18.91 9.28-10.27 18.29-20.89 25.54-29.42 1.87-2.2 3.61-4.25 5.2-6.11.75-.88 3-2.02 4.15-2.09 1.43-.1 3.14.09 3.64 2.43.18.82-.42 4.32-1.05 5.61-4.36 8.99-10.16 23.03-11.77 27.12-1.32 3.27-5.33 13.21-7.39 23.91-.75 3.87-1.1 7.41-1.02 10.22.05 1.71.44 5.27 1.06 6.3.71 1.23 1.55 1.97 2.58 2.27 1.11.35 3.76.23 6.18-.28 1.19-.27 2.58-.75 3.92-1.2 2.64-.9 5.13-1.75 6.66-1.32.49.14.85.63.94 1.11.13.64-.19 1.22-.64 1.65-1.68 1.59-5.24 3.55-7.71 4.53-1.79.69-6.3 2.26-9.65 1.99-3.16-.25-6.18-1.98-7.71-4.39a21.104 21.104 0 0 1-3.11-7.35c-.98-5.21-.72-10.82-.33-14.61.55-7.47 5.83-21.83 6.89-24.63.71-1.89 1.58-3.9 2.5-5.9-4.76 5.54-9.12 10.53-13.28 15.19-7.09 7.89-12.65 13.86-18.04 19.37-2.86 2.87-6.36 6.18-10.61 9.02-2.39 1.59-4.51 2.69-6.67 3.47-3.11 1.13-5.95 1.4-8.67.83-3.05-.59-6.03-2.71-7.77-5.54-1.46-2.3-2.34-4.92-2.68-7.99-.4-5.47.67-10.17 1.81-14.52 2.63-9.33 6.57-17.85 10.06-25.11 3.43-7.05 7.38-14.5 12.45-23.46 1.77-3.11 3.6-6.22 5.36-9.23 2.59-4.4 5.26-8.95 7.71-13.46.54-.99 1.06-1.98 1.58-2.97-.2.22-.4.44-.6.65-1.71 1.9-3.03 3.43-4.16 4.79l-4.13 5.05-32.89 40.95c-1.6 2.01-3.2 4.03-4.81 6.05-9.12 11.46-18.55 23.32-27.47 35.24-10.24 13.78-20.87 27.99-30.1 42.6l-.07.11c-2 3.17-3.73 4.77-5.14 4.77z"/></g><g
      id="BMW"><path class="st0" d="M394.9 69.22v5.53c52.56 0 95.33 42.76 95.33 95.33h5.53c0-55.7-45.16-100.86-100.86-100.86m0 196.19c-52.56 0-95.33-42.76-95.33-95.33h-5.53c0 55.7 45.16 100.86 100.86 100.86"/>
    <path id="W_12_" class="st0"
          d="M477.32 97.92c2.31 2.48 5.64 6.48 7.51 8.91l34.44-21.86a229.09 229.09 0 0 0-6.51-8.08l-21.81 14.42-1.49 1.28 1.11-1.62 9.63-19.22-6.81-6.81-19.23 9.63-1.62 1.11 1.29-1.49 14.43-21.8c-2.54-2.16-4.98-4.14-8.09-6.54L458.3 80.26c2.77 2.13 6.42 5.26 8.75 7.39l20.58-10.68 1.32-.97-.97 1.32-10.66 20.6z"/>
    <path id="M_12_" class="st0"
          d="m399.18 54.31 9.41-21.08.6-1.87-.17 1.95.99 28.17c3.3.31 6.71.77 10.07 1.33l-1.53-41.72c-4.7-.52-9.38-.89-14.06-1.09l-9.27 23.01-.33 1.71-.33-1.71L385.3 20c-4.68.2-9.36.57-14.06 1.09l-1.53 41.72c3.36-.56 6.77-1.01 10.07-1.33l.99-28.17-.17-1.95.6 1.87 9.41 21.08h8.57z"/>
    <path id="B_x5F_22d_12_" class="st0"
          d="M323.06 87.56c5.44-5.73 8.52-12.35 3.08-18.67-2.96-3.43-7.93-4.18-12.05-2.49l-.41.16.13-.36c.61-1.63 1-6.83-3.43-10.42-2.16-1.75-4.87-2.4-7.61-2.12-5.11.52-9.04 4.01-19.74 15.94-3.23 3.6-7.93 9.28-10.75 12.96l29.39 27.88c9.75-10.78 13.72-14.79 21.39-22.88zm-38.34-6.82c5.92-7.24 12.21-13.81 15.06-16.41.9-.82 1.88-1.64 3.07-1.96 1.93-.53 3.92.84 4.37 2.82.45 1.99-.8 3.88-2.19 5.44-3.13 3.53-14.61 15.54-14.61 15.54l-5.7-5.43zm11.5 10.92s11.18-11.82 14.83-15.6c1.45-1.5 2.38-2.41 3.38-2.9 1.29-.63 2.7-.76 3.96.08 1.24.83 1.81 2.26 1.5 3.68-.37 1.69-1.75 3.3-2.89 4.53-1.54 1.65-14.8 15.84-14.82 15.86l-5.96-5.65z"/>
    <path
        d="M394.9 69.22v100.86H294.04c0-55.74 45.12-100.86 100.86-100.86zm100.86 100.86c0 55.74-45.12 100.86-100.86 100.86V170.08h100.86z"
        style="fill:#0966b0"/>
    <path class="st0"
          d="M394.9 340.16c93.93 0 170.08-76.15 170.08-170.08S488.83 0 394.9 0 224.82 76.15 224.82 170.08c0 34.49 10.27 66.57 27.91 93.37l11.71-2.43c-18-25.77-28.56-57.12-28.56-90.94 0-87.82 71.19-159.02 159.02-159.02s159.02 71.19 159.02 159.02S482.72 329.1 394.9 329.1c-42 0-80.19-16.29-108.61-42.88l-12.45 3.32c30.84 31.24 73.68 50.62 121.06 50.62z"/></g></g></switch></svg>
